# This file uses centimeters as units for non-parametric coordinates.

mtllib cascade.mtl
g default
v -3.416490 -6.146027 0.504726
v -3.281606 -6.146027 -0.540297
v -3.281606 -0.012268 -0.540297
v -3.416490 0.000000 0.504726
v 0.000000 0.004622 -2.689818
v 0.000000 -6.146027 -2.689818
v 1.303262 -6.146027 -2.390121
v 1.303262 0.002038 -2.390121
v -2.250661 0.005718 -1.688053
v -2.250661 -6.146027 -1.688053
v -1.303262 -6.146027 -2.390121
v -1.303262 0.002038 -2.390121
v 2.250661 0.005717 -1.688053
v 2.250661 -6.146027 -1.688053
v 3.281606 -6.146027 -0.540297
v 3.281606 -0.012268 -0.540297
v 3.416490 -6.146027 0.504726
v 3.416490 0.000000 0.504726
v -0.651631 -6.146027 -2.539970
v -0.651631 0.003330 -2.539970
v 0.651631 -6.146027 -2.539970
v 0.651631 0.003330 -2.539970
v 1.776962 -6.146027 -2.039087
v 1.776962 0.003878 -2.039087
v 2.766134 -6.146027 -1.114175
v 2.766134 -0.003276 -1.114175
v -2.766134 -6.146027 -1.114175
v -2.766134 -0.003275 -1.114175
v -3.349048 -6.146027 -0.017785
v -3.349048 -0.006134 -0.017785
v -3.416490 -3.073014 0.504726
v -3.349048 -3.076081 -0.017785
v -3.281606 -3.079148 -0.540297
v -2.766134 -3.074651 -1.114175
v -2.250661 -3.070155 -1.688053
v -1.303262 -3.071994 -2.390121
v -0.651631 -3.071349 -2.539970
v 0.000000 -3.070703 -2.689818
v 0.651631 -3.071349 -2.539970
v 1.303262 -3.071994 -2.390121
v 1.776962 -3.071075 -2.039087
v 2.250661 -3.070155 -1.688053
v 2.766134 -3.074651 -1.114175
v 3.281606 -3.079148 -0.540297
v 3.416490 -3.073014 0.504726
v 3.349048 -6.146027 -0.017785
v 3.349048 -3.076081 -0.017785
v 3.349048 -0.006134 -0.017785
v -1.776962 -6.146027 -2.039087
v -1.776962 -3.071074 -2.039087
v -1.776962 0.003878 -2.039087
v 3.416490 -1.536507 0.504726
v 3.349048 -1.541107 -0.017785
v 3.281606 -1.545708 -0.540297
v 2.766134 -1.538964 -1.114175
v 2.250661 -1.532219 -1.688053
v 1.776962 -1.533599 -2.039087
v 1.303262 -1.534978 -2.390121
v 0.651631 -1.534009 -2.539970
v 0.000000 -1.533040 -2.689818
v -0.651631 -1.534009 -2.539970
v -1.303262 -1.534978 -2.390121
v -1.776962 -1.533598 -2.039087
v -2.250661 -1.532218 -1.688053
v -2.766134 -1.538963 -1.114175
v -3.281606 -1.545708 -0.540297
v -3.349048 -1.541107 -0.017785
v -3.416490 -1.536507 0.504726
v -3.416490 -4.609520 0.504726
v -3.349048 -4.611053 -0.017785
v -3.281606 -4.612587 -0.540297
v -2.766134 -4.610339 -1.114175
v -2.250661 -4.608091 -1.688053
v -1.776962 -4.608551 -2.039087
v -1.303262 -4.609011 -2.390121
v -0.651631 -4.608688 -2.539970
v 0.000000 -4.608365 -2.689818
v 0.651631 -4.608688 -2.539970
v 1.303262 -4.609011 -2.390121
v 1.776962 -4.608551 -2.039087
v 2.250661 -4.608091 -1.688053
v 2.766134 -4.610339 -1.114175
v 3.281606 -4.612587 -0.540297
v 3.349048 -4.611053 -0.017785
v 3.416490 -4.609520 0.504726
v -3.416490 -2.304760 0.504726
v -3.349048 -2.308594 -0.017785
v -3.281606 -2.312428 -0.540297
v -2.766134 -2.306807 -1.114175
v -2.250661 -2.301187 -1.688053
v -1.776962 -2.302336 -2.039087
v -1.303262 -2.303486 -2.390121
v -0.651631 -2.302679 -2.539970
v 0.000000 -2.301872 -2.689818
v 0.651631 -2.302679 -2.539970
v 1.303262 -2.303486 -2.390121
v 1.776962 -2.302337 -2.039087
v 2.250661 -2.301187 -1.688053
v 2.766134 -2.306808 -1.114175
v 3.281606 -2.312428 -0.540297
v 3.349048 -2.308594 -0.017785
v 3.416490 -2.304760 0.504726
v 3.416490 -0.768253 0.504726
v 3.349048 -0.773621 -0.017785
v 3.281606 -0.778988 -0.540297
v 2.766134 -0.771120 -1.114175
v 2.250661 -0.763251 -1.688053
v 1.776962 -0.764861 -2.039087
v 1.303262 -0.766470 -2.390121
v 0.651631 -0.765340 -2.539970
v 0.000000 -0.764209 -2.689818
v -0.651631 -0.765340 -2.539970
v -1.303262 -0.766470 -2.390121
v -1.776962 -0.764860 -2.039087
v -2.250661 -0.763250 -1.688053
v -2.766134 -0.771119 -1.114175
v -3.281606 -0.778988 -0.540297
v -3.349048 -0.773621 -0.017785
v -3.416490 -0.768253 0.504726
v 3.416490 -3.841267 0.504726
v 3.349048 -3.843567 -0.017785
v 3.281606 -3.845868 -0.540297
v 2.766134 -3.842495 -1.114175
v 2.250661 -3.839123 -1.688053
v 1.776962 -3.839813 -2.039087
v 1.303262 -3.840503 -2.390121
v 0.651631 -3.840018 -2.539970
v 0.000000 -3.839534 -2.689818
v -0.651631 -3.840018 -2.539970
v -1.303262 -3.840503 -2.390121
v -1.776962 -3.839813 -2.039087
v -2.250661 -3.839123 -1.688053
v -2.766134 -3.842495 -1.114175
v -3.281606 -3.845868 -0.540297
v -3.349048 -3.843567 -0.017785
v -3.416490 -3.841267 0.504726
v -3.416490 -5.377774 0.504726
v -3.349048 -5.378541 -0.017785
v -3.281606 -5.379307 -0.540297
v -2.766134 -5.378183 -1.114175
v -2.250661 -5.377059 -1.688053
v -1.776962 -5.377289 -2.039087
v -1.303262 -5.377519 -2.390121
v -0.651631 -5.377357 -2.539970
v 0.000000 -5.377196 -2.689818
v 0.651631 -5.377357 -2.539970
v 1.303262 -5.377519 -2.390121
v 1.776962 -5.377289 -2.039087
v 2.250661 -5.377059 -1.688053
v 2.766134 -5.378183 -1.114175
v 3.281606 -5.379307 -0.540297
v 3.349048 -5.378541 -0.017785
v 3.416490 -5.377774 0.504726
vt 0.000873 0.998958
vt 0.000894 0.873958
vt 0.996060 0.874127
vt 0.998030 0.999127
vt 0.998865 0.499128
vt 0.000958 0.498958
vt 0.000979 0.373958
vt 0.998466 0.374127
vt 0.999000 0.749128
vt 0.000915 0.748958
vt 0.000936 0.623958
vt 0.998424 0.624127
vt 0.999085 0.249128
vt 0.001000 0.248958
vt 0.001022 0.123958
vt 0.996188 0.124127
vt 0.001043 -0.001042
vt 0.998200 -0.000873
vt 0.000947 0.561458
vt 0.998644 0.561627
vt 0.000968 0.436458
vt 0.998666 0.436627
vt 0.000990 0.311458
vt 0.998776 0.311628
vt 0.001011 0.186458
vt 0.997636 0.186627
vt 0.000905 0.811458
vt 0.997530 0.811627
vt 0.000883 0.936458
vt 0.997045 0.936627
vt 0.499451 0.999043
vt 0.498964 0.936542
vt 0.498477 0.874042
vt 0.499217 0.811543
vt 0.499958 0.749043
vt 0.499680 0.624043
vt 0.499796 0.561543
vt 0.499911 0.499043
vt 0.499817 0.436543
vt 0.499723 0.374043
vt 0.499883 0.311543
vt 0.500042 0.249043
vt 0.499324 0.186543
vt 0.498605 0.124042
vt 0.499621 -0.000957
vt 0.001032 0.061458
vt 0.499113 0.061543
vt 0.997194 0.061627
vt 0.000926 0.686458
vt 0.499819 0.686543
vt 0.998712 0.686628
vt 0.748910 -0.000915
vt 0.748153 0.061585
vt 0.747396 0.124085
vt 0.748480 0.186585
vt 0.749564 0.249085
vt 0.749329 0.311585
vt 0.749095 0.374085
vt 0.749241 0.436585
vt 0.749388 0.499085
vt 0.749220 0.561585
vt 0.749052 0.624085
vt 0.749265 0.686585
vt 0.749479 0.749085
vt 0.748374 0.811585
vt 0.747269 0.874085
vt 0.748004 0.936585
vt 0.748740 0.999085
vt 0.250162 0.999000
vt 0.249924 0.936500
vt 0.249686 0.874000
vt 0.250061 0.811500
vt 0.250436 0.749000
vt 0.250372 0.686500
vt 0.250308 0.624000
vt 0.250371 0.561500
vt 0.250434 0.499000
vt 0.250393 0.436500
vt 0.250351 0.374000
vt 0.250436 0.311500
vt 0.250521 0.249000
vt 0.250167 0.186500
vt 0.249813 0.124000
vt 0.250073 0.061500
vt 0.250332 -0.001000
vt 0.624096 0.999064
vt 0.623484 0.936564
vt 0.622873 0.874064
vt 0.623795 0.811564
vt 0.624718 0.749064
vt 0.624542 0.686564
vt 0.624366 0.624064
vt 0.624508 0.561564
vt 0.624649 0.499064
vt 0.624529 0.436564
vt 0.624409 0.374064
vt 0.624606 0.311564
vt 0.624803 0.249064
vt 0.623902 0.186564
vt 0.623001 0.124064
vt 0.623633 0.061564
vt 0.624266 -0.000936
vt 0.873555 -0.000894
vt 0.872674 0.061606
vt 0.871792 0.124106
vt 0.873058 0.186606
vt 0.874324 0.249106
vt 0.874052 0.311606
vt 0.873781 0.374106
vt 0.873953 0.436606
vt 0.874126 0.499106
vt 0.873932 0.561606
vt 0.873738 0.624106
vt 0.873989 0.686606
vt 0.874239 0.749106
vt 0.872952 0.811606
vt 0.871665 0.874106
vt 0.872525 0.936606
vt 0.873385 0.999106
vt 0.374977 -0.000979
vt 0.374593 0.061521
vt 0.374209 0.124021
vt 0.374745 0.186521
vt 0.375282 0.249021
vt 0.375159 0.311521
vt 0.375037 0.374021
vt 0.375105 0.436521
vt 0.375173 0.499021
vt 0.375084 0.561521
vt 0.374994 0.624021
vt 0.375096 0.686521
vt 0.375197 0.749021
vt 0.374639 0.811521
vt 0.374081 0.874021
vt 0.374444 0.936521
vt 0.374806 0.999021
vt 0.125517 0.998979
vt 0.125403 0.936479
vt 0.125290 0.873979
vt 0.125483 0.811479
vt 0.125676 0.748979
vt 0.125649 0.686479
vt 0.125622 0.623979
vt 0.125659 0.561479
vt 0.125696 0.498979
vt 0.125680 0.436479
vt 0.125665 0.373979
vt 0.125713 0.311479
vt 0.125761 0.248979
vt 0.125589 0.186479
vt 0.125417 0.123979
vt 0.125552 0.061479
vt 0.125687 -0.001021
vn 0.991773 0.000000 0.128011
vn 0.991773 0.000000 0.128011
vn 0.991773 0.000000 0.128011
vn 0.991773 0.000000 0.128011
vn -0.224110 0.000000 0.974564
vn -0.000000 0.000000 1.000000
vn 0.000000 0.000000 1.000000
vn -0.224110 0.000000 0.974564
vn 0.595387 0.000000 0.803439
vn 0.682962 0.000000 0.730454
vn 0.682962 0.000000 0.730454
vn 0.595387 0.000000 0.803439
vn -0.743950 0.000000 0.668235
vn -0.682962 0.000000 0.730454
vn -0.682962 0.000000 0.730454
vn -0.743950 0.000000 0.668235
vn 0.743950 0.000000 0.668235
vn 0.882947 0.000000 0.469473
vn 0.882947 0.000000 0.469473
vn 0.743950 0.000000 0.668235
vn 0.224110 0.000000 0.974564
vn 0.406641 0.000000 0.913588
vn 0.406641 0.000000 0.913588
vn 0.224110 0.000000 0.974564
vn -0.595387 0.000000 0.803439
vn -0.406641 0.000000 0.913588
vn -0.406641 0.000000 0.913588
vn -0.595387 0.000000 0.803439
vn -0.991773 0.000000 0.128011
vn -0.882947 0.000000 0.469473
vn -0.882947 0.000000 0.469473
vn -0.991773 0.000000 0.128011
vn 0.991773 0.000000 0.128011
vn 0.991773 0.000000 0.128011
vn 0.991773 0.000000 0.128011
vn 0.991773 0.000000 0.128011
vn 0.882947 0.000000 0.469473
vn 0.882947 0.000000 0.469473
vn 0.743950 0.000000 0.668235
vn 0.743950 0.000000 0.668235
vn 0.682962 0.000000 0.730454
vn 0.682962 0.000000 0.730454
vn 0.595387 0.000000 0.803439
vn 0.595387 0.000000 0.803439
vn 0.224110 0.000000 0.974564
vn 0.406641 0.000000 0.913588
vn 0.406641 0.000000 0.913588
vn 0.224110 0.000000 0.974564
vn -0.000000 0.000000 1.000000
vn -0.000000 0.000000 1.000000
vn -0.224110 0.000000 0.974564
vn -0.224110 0.000000 0.974564
vn -0.406641 0.000000 0.913588
vn -0.406641 0.000000 0.913588
vn -0.595387 0.000000 0.803439
vn -0.595387 0.000000 0.803439
vn -0.682962 0.000000 0.730454
vn -0.682962 0.000000 0.730454
vn -0.743950 0.000000 0.668235
vn -0.743950 0.000000 0.668235
vn -0.882947 0.000000 0.469473
vn -0.882947 0.000000 0.469473
vn -0.991773 0.000000 0.128011
vn -0.991773 0.000000 0.128011
vn -0.991773 0.000000 0.128011
vn -0.991773 0.000000 0.128011
vn -0.991773 0.000000 0.128011
vn -0.991773 0.000000 0.128011
vn -0.991773 0.000000 0.128011
vn -0.991773 0.000000 0.128011
vn -0.882947 0.000000 0.469473
vn -0.743950 0.000000 0.668235
vn -0.682962 0.000000 0.730454
vn -0.595387 0.000000 0.803439
vn -0.406641 0.000000 0.913588
vn -0.224110 0.000000 0.974564
vn -0.000000 0.000000 1.000000
vn 0.224110 0.000000 0.974564
vn 0.406641 0.000000 0.913588
vn 0.595387 0.000000 0.803439
vn 0.682962 0.000000 0.730454
vn 0.743950 0.000000 0.668235
vn 0.882947 0.000000 0.469473
vn 0.991773 0.000000 0.128011
vn 0.991773 0.000000 0.128011
vn 0.991773 0.000000 0.128011
vn 0.991773 0.000000 0.128011
vn 0.882947 0.000000 0.469473
vn 0.743950 0.000000 0.668235
vn 0.682962 0.000000 0.730454
vn 0.595387 0.000000 0.803439
vn 0.406641 0.000000 0.913588
vn 0.224110 0.000000 0.974564
vn 0.000000 0.000000 1.000000
vn -0.224110 0.000000 0.974564
vn -0.406641 0.000000 0.913588
vn -0.595387 0.000000 0.803439
vn -0.682962 0.000000 0.730454
vn -0.743950 0.000000 0.668235
vn -0.882947 0.000000 0.469473
vn -0.991773 0.000000 0.128011
vn -0.991773 0.000000 0.128011
vn 0.991773 0.000000 0.128011
vn 0.991773 0.000000 0.128011
vn 0.882947 0.000000 0.469473
vn 0.743950 0.000000 0.668235
vn 0.682962 0.000000 0.730454
vn 0.595387 0.000000 0.803439
vn 0.406641 0.000000 0.913588
vn 0.224110 0.000000 0.974564
vn 0.000000 0.000000 1.000000
vn -0.224110 0.000000 0.974564
vn -0.406641 0.000000 0.913588
vn -0.595387 0.000000 0.803439
vn -0.682962 0.000000 0.730454
vn -0.743950 0.000000 0.668235
vn -0.882947 0.000000 0.469473
vn -0.991773 0.000000 0.128011
vn -0.991773 0.000000 0.128011
vn -0.991773 0.000000 0.128011
vn -0.991773 0.000000 0.128011
vn -0.882946 0.000000 0.469475
vn -0.743950 0.000000 0.668235
vn -0.682764 0.000000 0.730639
vn -0.595387 0.000000 0.803439
vn -0.406713 0.000000 0.913556
vn -0.224110 0.000000 0.974564
vn 0.000000 0.000000 1.000000
vn 0.224110 0.000000 0.974564
vn 0.406713 0.000000 0.913556
vn 0.595387 0.000000 0.803439
vn 0.682764 0.000000 0.730639
vn 0.743950 0.000000 0.668235
vn 0.882946 0.000000 0.469475
vn 0.991773 0.000000 0.128011
vn 0.991773 0.000000 0.128011
vn 0.991773 0.000000 0.128011
vn 0.991773 0.000000 0.128011
vn 0.882947 0.000000 0.469473
vn 0.743950 0.000000 0.668235
vn 0.682962 0.000000 0.730454
vn 0.595387 0.000000 0.803439
vn 0.406641 0.000000 0.913588
vn 0.224110 0.000000 0.974564
vn 0.000000 0.000000 1.000000
vn -0.224110 0.000000 0.974564
vn -0.406641 0.000000 0.913588
vn -0.595387 0.000000 0.803439
vn -0.682962 0.000000 0.730454
vn -0.743950 0.000000 0.668235
vn -0.882947 0.000000 0.469473
vn -0.991773 0.000000 0.128011
vn -0.991773 0.000000 0.128011
s 1
g polySurface18
usemtl initialShadingGroup
f 86/86/1 87/87/2 67/67/3 68/68/4
f 59/59/5 60/60/6 94/94/7 95/95/8
f 63/63/9 64/64/10 90/90/11 91/91/12
f 55/55/13 56/56/14 98/98/15 99/99/16
f 65/65/17 66/66/18 88/88/19 89/89/20
f 61/61/21 62/62/22 92/92/23 93/93/24
f 57/57/25 58/58/26 96/96/27 97/97/28
f 53/53/29 54/54/30 100/100/31 101/101/32
f 60/60/6 61/61/21 93/93/24 94/94/7
f 58/58/26 59/59/5 95/95/8 96/96/27
f 56/56/14 57/57/25 97/97/28 98/98/15
f 54/54/30 55/55/13 99/99/16 100/100/31
f 64/64/10 65/65/17 89/89/20 90/90/11
f 66/66/18 67/67/3 87/87/2 88/88/19
f 69/69/33 70/70/34 135/135/35 136/136/36
f 134/134/37 135/135/35 70/70/34 71/71/38
f 133/133/39 134/134/37 71/71/38 72/72/40
f 132/132/41 133/133/39 72/72/40 73/73/42
f 73/73/42 74/74/43 131/131/44 132/132/41
f 129/129/45 130/130/46 75/75/47 76/76/48
f 128/128/49 129/129/45 76/76/48 77/77/50
f 127/127/51 128/128/49 77/77/50 78/78/52
f 126/126/53 127/127/51 78/78/52 79/79/54
f 125/125/55 126/126/53 79/79/54 80/80/56
f 124/124/57 125/125/55 80/80/56 81/81/58
f 123/123/59 124/124/57 81/81/58 82/82/60
f 122/122/61 123/123/59 82/82/60 83/83/62
f 83/83/62 84/84/63 121/121/64 122/122/61
f 120/120/65 121/121/64 84/84/63 85/85/66
f 52/52/67 53/53/29 101/101/32 102/102/68
f 130/130/46 131/131/44 74/74/43 75/75/47
f 62/62/22 63/63/9 91/91/12 92/92/23
f 103/103/69 104/104/70 53/53/29 52/52/67
f 104/104/70 105/105/71 54/54/30 53/53/29
f 105/105/71 106/106/72 55/55/13 54/54/30
f 106/106/72 107/107/73 56/56/14 55/55/13
f 107/107/73 108/108/74 57/57/25 56/56/14
f 108/108/74 109/109/75 58/58/26 57/57/25
f 109/109/75 110/110/76 59/59/5 58/58/26
f 110/110/76 111/111/77 60/60/6 59/59/5
f 111/111/77 112/112/78 61/61/21 60/60/6
f 112/112/78 113/113/79 62/62/22 61/61/21
f 113/113/79 114/114/80 63/63/9 62/62/22
f 114/114/80 115/115/81 64/64/10 63/63/9
f 115/115/81 116/116/82 65/65/17 64/64/10
f 116/116/82 117/117/83 66/66/18 65/65/17
f 117/117/83 118/118/84 67/67/3 66/66/18
f 68/68/4 67/67/3 118/118/84 119/119/85
f 137/137/86 138/138/87 70/70/34 69/69/33
f 71/71/38 70/70/34 138/138/87 139/139/88
f 72/72/40 71/71/38 139/139/88 140/140/89
f 73/73/42 72/72/40 140/140/89 141/141/90
f 141/141/90 142/142/91 74/74/43 73/73/42
f 75/75/47 74/74/43 142/142/91 143/143/92
f 76/76/48 75/75/47 143/143/92 144/144/93
f 77/77/50 76/76/48 144/144/93 145/145/94
f 78/78/52 77/77/50 145/145/94 146/146/95
f 79/79/54 78/78/52 146/146/95 147/147/96
f 80/80/56 79/79/54 147/147/96 148/148/97
f 81/81/58 80/80/56 148/148/97 149/149/98
f 82/82/60 81/81/58 149/149/98 150/150/99
f 83/83/62 82/82/60 150/150/99 151/151/100
f 151/151/100 152/152/101 84/84/63 83/83/62
f 85/85/66 84/84/63 152/152/101 153/153/102
f 31/31/103 32/32/104 87/87/2 86/86/1
f 88/88/19 87/87/2 32/32/104 33/33/105
f 89/89/20 88/88/19 33/33/105 34/34/106
f 90/90/11 89/89/20 34/34/106 35/35/107
f 91/91/12 90/90/11 35/35/107 50/50/108
f 92/92/23 91/91/12 50/50/108 36/36/109
f 93/93/24 92/92/23 36/36/109 37/37/110
f 94/94/7 93/93/24 37/37/110 38/38/111
f 95/95/8 94/94/7 38/38/111 39/39/112
f 96/96/27 95/95/8 39/39/112 40/40/113
f 97/97/28 96/96/27 40/40/113 41/41/114
f 98/98/15 97/97/28 41/41/114 42/42/115
f 99/99/16 98/98/15 42/42/115 43/43/116
f 100/100/31 99/99/16 43/43/116 44/44/117
f 101/101/32 100/100/31 44/44/117 47/47/118
f 102/102/68 101/101/32 47/47/118 45/45/119
f 48/48/120 104/104/70 103/103/69 18/18/121
f 16/16/122 105/105/71 104/104/70 48/48/120
f 26/26/123 106/106/72 105/105/71 16/16/122
f 13/13/124 107/107/73 106/106/72 26/26/123
f 24/24/125 108/108/74 107/107/73 13/13/124
f 8/8/126 109/109/75 108/108/74 24/24/125
f 22/22/127 110/110/76 109/109/75 8/8/126
f 5/5/128 111/111/77 110/110/76 22/22/127
f 20/20/129 112/112/78 111/111/77 5/5/128
f 12/12/130 113/113/79 112/112/78 20/20/129
f 51/51/131 114/114/80 113/113/79 12/12/130
f 9/9/132 115/115/81 114/114/80 51/51/131
f 28/28/133 116/116/82 115/115/81 9/9/132
f 3/3/134 117/117/83 116/116/82 28/28/133
f 30/30/135 118/118/84 117/117/83 3/3/134
f 119/119/85 118/118/84 30/30/135 4/4/136
f 45/45/119 47/47/118 121/121/64 120/120/65
f 122/122/61 121/121/64 47/47/118 44/44/117
f 44/44/117 43/43/116 123/123/59 122/122/61
f 43/43/116 42/42/115 124/124/57 123/123/59
f 42/42/115 41/41/114 125/125/55 124/124/57
f 41/41/114 40/40/113 126/126/53 125/125/55
f 40/40/113 39/39/112 127/127/51 126/126/53
f 39/39/112 38/38/111 128/128/49 127/127/51
f 38/38/111 37/37/110 129/129/45 128/128/49
f 37/37/110 36/36/109 130/130/46 129/129/45
f 36/36/109 50/50/108 131/131/44 130/130/46
f 132/132/41 131/131/44 50/50/108 35/35/107
f 35/35/107 34/34/106 133/133/39 132/132/41
f 34/34/106 33/33/105 134/134/37 133/133/39
f 33/33/105 32/32/104 135/135/35 134/134/37
f 136/136/36 135/135/35 32/32/104 31/31/103
f 1/1/137 29/29/138 138/138/87 137/137/86
f 139/139/88 138/138/87 29/29/138 2/2/139
f 140/140/89 139/139/88 2/2/139 27/27/140
f 141/141/90 140/140/89 27/27/140 10/10/141
f 49/49/142 142/142/91 141/141/90 10/10/141
f 143/143/92 142/142/91 49/49/142 11/11/143
f 144/144/93 143/143/92 11/11/143 19/19/144
f 145/145/94 144/144/93 19/19/144 6/6/145
f 146/146/95 145/145/94 6/6/145 21/21/146
f 147/147/96 146/146/95 21/21/146 7/7/147
f 148/148/97 147/147/96 7/7/147 23/23/148
f 149/149/98 148/148/97 23/23/148 14/14/149
f 150/150/99 149/149/98 14/14/149 25/25/150
f 151/151/100 150/150/99 25/25/150 15/15/151
f 46/46/152 152/152/101 151/151/100 15/15/151
f 153/153/102 152/152/101 46/46/152 17/17/153
